<?xml version="1.0" encoding="utf-8"?>
<!-- Generator: Adobe Illustrator 26.0.3, SVG Export Plug-In . SVG Version: 6.00 Build 0)  -->
<svg version="1.1" id="Vrstva_1" xmlns="http://www.w3.org/2000/svg" xmlns:xlink="http://www.w3.org/1999/xlink" x="0px" y="0px"
	 viewBox="0 0 500 500" style="enable-background:new 0 0 500 500;" xml:space="preserve">
<style type="text/css">
	.st0{fill:#DBDBDB;}
</style>
<rect x="87" y="87.5" class="st0" width="326" height="326"/>
<rect x="106.6" y="106.7" width="73" height="286.7"/>
<g>
	<g>
		<path d="M291,148c42.8,0,81,32.8,81,82.5c0,53.8-37.5,87.3-83.5,87.3c-45.5,0-82-35.2-82-83.5C206.5,189.5,238.3,148,291,148z
			 M286,157.2c-28,0-53.5,23.5-53.5,70.2c0,46.8,25.5,80.8,61,80.8c28,0,53-22.5,53-70.8C346.5,185,318.8,157.2,286,157.2z
			 M302.8,301.5c26.2,20,54.2,38,77.2,46.5l-1.8,6c-12,0-26.2-1.2-33.8-3.2c-17.2-4.8-46.8-26.2-67-40.5L302.8,301.5z"/>
	</g>
</g>
</svg>
