<?xml version="1.0" encoding="utf-8"?>
<!-- Generator: Adobe Illustrator 26.0.3, SVG Export Plug-In . SVG Version: 6.00 Build 0)  -->
<svg version="1.1" id="Vrstva_1" xmlns="http://www.w3.org/2000/svg" xmlns:xlink="http://www.w3.org/1999/xlink" x="0px" y="0px"
	 viewBox="0 0 500 500" style="enable-background:new 0 0 500 500;" xml:space="preserve">
<style type="text/css">
	.mF7HnU_r{fill:none;stroke:currentColor;stroke-width:10;stroke-miterlimit:10;}
</style>
<g>
	<path class="mF7HnU_r" d="M144.2,328.2c-16.2-21.9-25.8-48.9-25.8-78.2c0-72.7,58.9-131.6,131.6-131.6c29.3,0,56.3,9.6,78.2,25.8
		l27.9-27.9c-29.1-23.1-66-37-106.1-37c-94.3,0-170.7,76.4-170.7,170.7c0,40.1,13.8,76.9,37,106.1L144.2,328.2z"/>
	<path class="mF7HnU_r" d="M383.7,143.9l-27.9,27.9c16.2,21.9,25.8,48.9,25.8,78.2c0,72.7-58.9,131.6-131.6,131.6
		c-29.3,0-56.3-9.6-78.2-25.8l-27.9,27.9c29.1,23.1,66,37,106.1,37c94.3,0,170.7-76.4,170.7-170.7
		C420.7,209.9,406.8,173.1,383.7,143.9z"/>
</g>
<rect x="230.5" y="38.6" transform="matrix(0.7071 0.7071 -0.7071 0.7071 250 -103.5534)" class="mF7HnU_r" width="39.1" height="422.8"/>
</svg>
