<?xml version="1.0" encoding="utf-8"?>
<!-- Generate: Adobe Illustrator 26.0.3, SVG Export Plug-In . SVG Version: 6.00 Build 0)  -->
<svg version="1.1" id="Vrstva_1" xmlns="http://www.w3.org/2000/svg" xmlns:xlink="http://www.w3.org/1999/xlink" x="0px" y="0px"
	 viewBox="0 0 500 500" style="enable-background:new 0 0 500 500;" xml:space="preserve">
<path d="M399.9,413H100.1c-7.2,0-13.1-5.9-13.1-13.1v-13.5c0-7.2,5.9-13.1,13.1-13.1h299.7c7.2,0,13.1,5.9,13.1,13.1v13.5
	C413,407.1,407.1,413,399.9,413z"/>
<path d="M373.2,400.5v-87.8c0-6.9,5.6-12.5,12.5-12.5h14.8c6.9,0,12.5,5.6,12.5,12.5v87.8c0,6.9-5.6,12.5-12.5,12.5h-14.8
	C378.8,413,373.2,407.4,373.2,400.5z"/>
<path d="M87.5,400.4v-87.6c0-7,5.6-12.6,12.6-12.6h14.6c7,0,12.6,5.6,12.6,12.6v87.6c0,7-5.6,12.6-12.6,12.6h-14.6
	C93.2,413,87.5,407.3,87.5,400.4z"/>
<rect x="143.9" y="173.7" transform="matrix(-1.836970e-16 1 -1 -1.836970e-16 444.0957 -56.9042)" width="213.2" height="39.8"/>
<polygon points="250,375.2 316.4,260.1 183.5,260.1 "/>
</svg>
