<?xml version="1.0" encoding="utf-8"?>
<!-- Generator: Adobe Illustrator 26.0.3, SVG Export Plug-In . SVG Version: 6.00 Build 0)  -->
<svg version="1.1" xmlns="http://www.w3.org/2000/svg" xmlns:xlink="http://www.w3.org/1999/xlink" x="0px" y="0px"
	 viewBox="0 0 500 500" style="enable-background:new 0 0 500 500;" xml:space="preserve">
<style type="text/css">
	.st0{fill:#15C286;}
	.st1{fill:#0F8F62;}
</style>
<g id="file">
	<path class="st0" d="M153.3,54.8c-18.4,0-33.3,14.9-33.3,33.3v325.4c0,18.4,14.9,33.3,33.3,33.3h193.4c18.4,0,33.3-14.9,33.3-33.3
		V135.7l-81-81H153.3z"/>
	<path class="st1" d="M298.5,54.2c0,0.1,0,0.2,0,0.4v47.9c0,18.4,14.9,33.3,33.3,33.3h47.9c0.1,0,0.2,0,0.4,0L298.5,54.2z"/>
</g>
<g id="Vrstva_1">
	<g>
		<ellipse cx="194.6" cy="378.2" rx="29.9" ry="24"/>
		<ellipse cx="301.4" cy="340.4" rx="29.9" ry="24"/>
		<rect x="206" y="245.5" width="18.6" height="132.8"/>
		<rect x="312.8" y="207.7" width="18.6" height="132.8"/>
		<polygon points="206,245.5 331.3,194 213.3,261.9 		"/>
		<polygon points="213.3,261.8 331.3,212.9 331.3,194 		"/>
	</g>
</g>
</svg>
