<?xml version="1.0" encoding="utf-8"?>
<!-- Generator: Adobe Illustrator 26.0.3, SVG Export Plug-In . SVG Version: 6.00 Build 0)  -->
<svg version="1.1" xmlns="http://www.w3.org/2000/svg" xmlns:xlink="http://www.w3.org/1999/xlink" x="0px" y="0px"
	 viewBox="0 0 500 500" style="enable-background:new 0 0 500 500;" xml:space="preserve">
<style type="text/css">
	.st0{fill:#1A1333;}
	.st1{fill:#EEEEEE;}
</style>
<g id="file">
	<path class="st0" d="M153.3,54.3c-18.4,0-33.3,14.9-33.3,33.3V413c0,18.4,14.9,33.3,33.3,33.3h193.4c18.4,0,33.3-14.9,33.3-33.3
		V135.2l-81-81H153.3z"/>
	<path d="M298.5,53.7c0,0.1,0,0.2,0,0.4V102c0,18.4,14.9,33.3,33.3,33.3h47.9c0.1,0,0.2,0,0.4,0L298.5,53.7z"/>
</g>
<g id="Vrstva_2">
	<path class="st1" d="M294.3,253.7c1.2,2.3,0.9,5.1-0.8,7.1l-10.5,12.7c0.6,2.3,1.1,4.6,1.5,7c0.3,2.4,0.5,4.8,0.5,7.2l13.6,9.3
		c2.2,1.5,3.3,4.1,2.7,6.6c-0.8,3.5-1.8,6.9-3.1,10.2l-1,2.4c-1.4,3.3-3.1,6.5-4.9,9.6c-1.4,2.2-4,3.3-6.6,2.9l-16.2-2.8
		c-3.3,3.4-7.1,6.4-11.3,8.8l-1.3,16.4c-0.2,2.6-1.9,4.9-4.4,5.7c-3.8,1.2-7.7,2.1-11.7,2.6c-4,0.6-8.1,0.8-12,0.7
		c-2.6-0.1-4.9-1.8-5.8-4.3l-5.7-15.4c-4.7-1.2-9.1-3-13.3-5.4l-14.8,7.1c-2.3,1.1-5.2,0.8-7.1-0.9c-2.6-2.4-5.1-5-7.4-7.8l-1.6-2.1
		c-2.1-2.8-4.1-5.8-5.7-8.9c-1.2-2.3-0.9-5.1,0.8-7.1l10.5-12.7c-0.6-2.3-1.1-4.6-1.5-7c-0.3-2.4-0.5-4.8-0.5-7.2l-13.6-9.3
		c-2.2-1.5-3.3-4.1-2.7-6.6c0.8-3.5,1.8-6.9,3.1-10.2l1-2.4c1.4-3.3,3.1-6.5,4.9-9.6c1.4-2.2,4-3.3,6.6-2.9l16.2,2.8
		c3.3-3.4,7.1-6.4,11.3-8.8l1.3-16.4c0.2-2.6,1.9-4.9,4.4-5.7c3.8-1.2,7.7-2.1,11.7-2.7c4-0.6,8.1-0.8,12-0.7
		c2.6,0.1,4.9,1.8,5.8,4.3l5.7,15.4c4.7,1.2,9.1,3,13.3,5.4l14.8-7.1c2.3-1.1,5.2-0.8,7.1,0.9c2.6,2.4,5.1,5,7.4,7.8l1.6,2.1
		C290.7,247.6,292.6,250.5,294.3,253.7L294.3,253.7z M234,310.3c12.3-1.7,20.9-13.1,19.2-25.4c-1.7-12.3-13.1-20.9-25.4-19.2
		c-12.3,1.7-20.9,13.1-19.2,25.4C210.3,303.5,221.7,312.1,234,310.3z"/>
	<path class="st1" d="M339.6,359.3c0.3,1.4-0.4,2.8-1.6,3.5l-7.5,4.8c0,1.3-0.2,2.6-0.4,3.8s-0.5,2.5-0.9,3.7l5.5,7
		c0.9,1.1,1,2.6,0.3,3.8c-1,1.7-2,3.2-3.2,4.7l-0.9,1.1c-1.3,1.5-2.6,2.8-4.1,4.1c-1.1,0.9-2.6,1-3.8,0.4l-7.9-4
		c-2.3,1.2-4.7,2.1-7.2,2.7l-3.3,8.2c-0.5,1.3-1.8,2.2-3.2,2.2c-2.1,0-4.3-0.2-6.4-0.5c-2.2-0.4-4.3-0.9-6.3-1.6
		c-1.3-0.5-2.2-1.7-2.3-3.1l-0.4-8.8c-2.2-1.4-4.2-3-5.9-4.9l-8.7,1.3c-1.4,0.2-2.8-0.4-3.5-1.6c-1-1.7-1.8-3.4-2.5-5.2l-0.5-1.3
		c-0.6-1.8-1.1-3.6-1.5-5.5c-0.3-1.4,0.4-2.8,1.6-3.5l7.5-4.8c0-1.3,0.2-2.6,0.4-3.8s0.5-2.5,0.9-3.7l-5.5-7c-0.9-1.1-1-2.6-0.3-3.8
		c1-1.7,2-3.2,3.2-4.7l0.9-1.1c1.3-1.5,2.6-2.8,4.1-4.1c1.1-0.9,2.6-1,3.8-0.4l7.9,4c2.3-1.2,4.7-2.1,7.2-2.7l3.3-8.2
		c0.5-1.3,1.8-2.2,3.2-2.2c2.1,0,4.3,0.2,6.4,0.5c2.2,0.4,4.3,0.9,6.3,1.6c1.3,0.5,2.2,1.7,2.3,3.1l0.4,8.8c2.2,1.4,4.2,3,5.9,4.9
		l8.8-1.2c1.4-0.2,2.8,0.4,3.5,1.6c1,1.7,1.8,3.4,2.5,5.2l0.5,1.3C338.8,355.6,339.3,357.4,339.6,359.3L339.6,359.3z M299.6,378.6
		c6.6,1.1,12.8-3.3,13.9-9.9c1.1-6.6-3.3-12.8-9.9-13.9c-6.6-1.1-12.8,3.3-13.9,9.9C288.5,371.3,293,377.5,299.6,378.6z"/>
</g>
</svg>
