<?xml version="1.0" encoding="utf-8"?>
<!-- Generator: Adobe Illustrator 26.0.3, SVG Export Plug-In . SVG Version: 6.00 Build 0)  -->
<svg version="1.1" id="Vrstva_1" xmlns="http://www.w3.org/2000/svg" xmlns:xlink="http://www.w3.org/1999/xlink" x="0px" y="0px"
	 viewBox="0 0 500 500" style="enable-background:new 0 0 500 500;" xml:space="preserve">
<style type="text/css">
	.st0{fill:#DDDDEE;}
	.st1{fill:#ADADBB;}
	.st2{fill:#574A82;}
</style>
<g id="Vrstva_1_00000092434389247102016490000011072279145394181771_">
	<g id="file">
		<path class="st0" d="M153.3,54.3c-18.4,0-33.3,14.9-33.3,33.3V413c0,18.4,14.9,33.3,33.3,33.3h193.4c18.4,0,33.3-14.9,33.3-33.3
			V135.2l-81-81H153.3V54.3z"/>
		<path class="st1" d="M298.5,53.7c0,0.1,0,0.2,0,0.4V102c0,18.4,14.9,33.3,33.3,33.3h47.9c0.1,0,0.2,0,0.4,0L298.5,53.7z"/>
	</g>
	<g id="Vrstva_2_00000042011138154146150220000009742918201005307822_">
	</g>
</g>
<g>
	<rect x="159.8" y="235" class="st2" width="182.5" height="22.2"/>
	<rect x="159.8" y="276.7" class="st2" width="182.5" height="22.2"/>
	<rect x="159.8" y="318.5" class="st2" width="182.5" height="22.2"/>
	<rect x="159.8" y="360.2" class="st2" width="122.5" height="22.2"/>
</g>
</svg>
