<?xml version="1.0" encoding="utf-8"?>
<!-- Generator: Adobe Illustrator 26.0.3, SVG Export Plug-In . SVG Version: 6.00 Build 0)  -->
<svg version="1.1" xmlns="http://www.w3.org/2000/svg" xmlns:xlink="http://www.w3.org/1999/xlink" x="0px" y="0px"
	 viewBox="0 0 500 500" style="enable-background:new 0 0 500 500;" xml:space="preserve">
<style type="text/css">
	.st0{fill:#A02C5D;}
	.st1{fill:#5F1937;}
	.st2{fill:#5F1937;stroke:#EECCDD;stroke-width:8;stroke-miterlimit:10;}
	.st3{stroke:#EECCDD;stroke-width:8;stroke-miterlimit:10;}
</style>
<g id="Vrstva_1">
	<g id="Vrstva_1_00000092434389247102016490000011072279145394181771_">
		<g id="file">
			<path class="st0" d="M153.3,54.3c-18.4,0-33.3,14.9-33.3,33.3V413c0,18.4,14.9,33.3,33.3,33.3h193.4c18.4,0,33.3-14.9,33.3-33.3
				V135.2l-81-81H153.3V54.3z"/>
			<path class="st1" d="M298.5,53.7c0,0.1,0,0.2,0,0.4V102c0,18.4,14.9,33.3,33.3,33.3h47.9c0.1,0,0.2,0,0.4,0L298.5,53.7z"/>
		</g>
		<g id="Vrstva_2_00000042011138154146150220000009742918201005307822_">
		</g>
	</g>
</g>
<g id="Vrstva_2">
	<g>
		<circle class="st2" cx="250.6" cy="316.8" r="71.5"/>
		<polygon class="st3" points="281.7,317.7 231.1,283.4 231.1,352 		"/>
	</g>
</g>
</svg>
