<?xml version="1.0" encoding="utf-8"?>
<!-- Generator: Adobe Illustrator 26.0.3, SVG Export Plug-In . SVG Version: 6.00 Build 0)  -->
<svg version="1.1" id="Vrstva_1" xmlns="http://www.w3.org/2000/svg" xmlns:xlink="http://www.w3.org/1999/xlink" x="0px" y="0px"
	 viewBox="0 0 500 500" style="enable-background:new 0 0 500 500;" xml:space="preserve">
<style type="text/css">
	.st0{fill:#ABD96D;}
	.st1{fill:#82A553;}
</style>
<g id="file">
	<path class="st0" d="M153.3,54.3c-18.4,0-33.3,14.9-33.3,33.3V413c0,18.4,14.9,33.3,33.3,33.3h193.4c18.4,0,33.3-14.9,33.3-33.3
		V135.2l-81-81H153.3V54.3z"/>
	<path class="st1" d="M298.5,53.7c0,0.1,0,0.2,0,0.4V102c0,18.4,14.9,33.3,33.3,33.3h47.9c0.1,0,0.2,0,0.4,0L298.5,53.7z"/>
</g>
<g id="Vrstva_2_00000042011138154146150220000009742918201005307822_">
</g>
<g>
	<g>
		<path d="M218.6,363.9h-23.8l0.7-2.8c6.2-0.6,6.5-1.7,6-5.6c-0.4-3.2-1-6.8-1.6-10.9h-17.2c-1.6,3-4,7-5.7,10.4
			c-2.1,4.3-1.6,5.4,5.6,6.1l-0.6,2.8h-21l0.7-2.8c6.2-0.8,7.2-1.4,11.9-9.4l25.9-44.9l3.7-0.5c3.6,23,5.9,35.9,7.7,46.6
			c1.1,6.6,1.7,7.5,8.3,8.3L218.6,363.9z M196.2,319.9H196c-3.8,7-7.8,14.2-11.2,20.6h14.5L196.2,319.9z"/>
		<path d="M250.9,307.1c11.2,0,17.7,4.5,17.7,12.2c0,8.2-7.1,12.6-14.8,14.1c7,1.5,13.5,5.8,13.5,13.3c0,11-10.6,17.2-24.8,17.2
			h-24.9l0.6-2.8c6.8-0.6,7.7-1.4,9-8.2l6.9-34.8c1.3-6.9,0.5-7.5-6.6-8.1l0.7-2.9H250.9z M237.1,352.6c-1.3,6.6,1.6,7.9,6.6,7.9
			c7.6,0,12.8-6.3,12.8-14.2c0-8.1-5.6-10.9-12.9-10.9h-3.2L237.1,352.6z M244.6,331.9c9.8,0,13.9-5.6,13.9-12.4
			c0-6.6-4.2-8.9-8.8-8.9c-3.6,0-4.4,0.3-5.3,4.9l-3.2,16.5H244.6z"/>
		<path d="M323.3,349.9c-1.4,4.1-4.5,11.3-6,13.4c-2.7,0.5-8.1,1.8-14.5,1.8c-15.6,0-26.9-9.1-26.9-25.2c0-21,16.8-34.1,36.2-34.1
			c7.7,0,12.6,1.5,15.9,2.2c-0.7,3.4-1.5,9.5-2,14.4l-3,0.2c-0.5-10.1-4.3-13.2-12.2-13.2c-13.2,0-23.7,13.6-23.7,30.9
			c0,13.5,6.5,21.2,16.1,21.2c7.4,0,12-4,17.3-12.7L323.3,349.9z"/>
	</g>
</g>
</svg>
