<?xml version="1.0" encoding="utf-8"?>
<!-- Generator: Adobe Illustrator 26.0.3, SVG Export Plug-In . SVG Version: 6.00 Build 0)  -->
<svg version="1.1" id="Vrstva_1" xmlns="http://www.w3.org/2000/svg" xmlns:xlink="http://www.w3.org/1999/xlink" x="0px" y="0px"
	 viewBox="0 0 500 500" style="enable-background:new 0 0 500 500;" xml:space="preserve">
<style type="text/css">
	.st0{fill:#C79842;}
	.st1{fill:#FBBF54;}
	.st2{fill:#CCCCCC;}
	.st3{fill:#999999;}
	.st4{fill:#333333;}
	.st5{fill:#666666;}
</style>
<g>
	<g>
		<path class="st0" d="M408.8,126.3H91.2v-20.4h305.6c6.6,0,12,5.4,12,12V126.3z"/>
		<path class="st0" d="M250.3,105.9H91.2v-7.6c0-6.6,5.4-12,12-12h147.1V105.9z"/>
		<polygon class="st0" points="250.3,86.6 250.3,105.9 277.4,105.9 		"/>
	</g>
	<path class="st1" d="M86.4,380h327.8c17.8,0,32.2-14.4,32.2-32.2V152.2c0-17.8-14.4-32.2-32.2-32.2H86.4
		c-17.8,0-32.2,14.4-32.2,32.2v195.7C54.2,365.6,68.7,380,86.4,380z"/>
	<rect x="54" y="230.8" class="st0" width="392.1" height="38.5"/>
</g>
<g>
	<polygon class="st2" points="443.6,252.8 435,252.8 432.2,230.8 446.3,230.8 	"/>
	<polygon class="st2" points="422.6,252.8 414,252.8 411.2,230.8 425.3,230.8 	"/>
	<polygon class="st2" points="424.5,247.2 433.1,247.2 435.8,269.2 421.7,269.2 	"/>
	<polygon class="st2" points="403.6,247.2 412.2,247.2 415,269.2 400.9,269.2 	"/>
	<polygon class="st2" points="401.5,252.8 392.9,252.8 390.1,230.8 404.2,230.8 	"/>
	<polygon class="st2" points="380.5,252.8 371.9,252.8 369.1,230.8 383.2,230.8 	"/>
	<polygon class="st2" points="382.4,247.2 391,247.2 393.7,269.2 379.6,269.2 	"/>
	<polygon class="st2" points="361.5,247.2 370.1,247.2 372.9,269.2 358.8,269.2 	"/>
	<polygon class="st2" points="359.6,252.8 351,252.8 348.2,230.8 362.4,230.8 	"/>
	<polygon class="st2" points="338.6,252.8 330,252.8 327.2,230.8 341.4,230.8 	"/>
	<polygon class="st2" points="340.5,247.3 349.1,247.3 351.8,269.3 337.7,269.3 	"/>
	<polygon class="st2" points="319.6,247.3 328.2,247.3 331,269.3 316.9,269.3 	"/>
	<polygon class="st2" points="317.5,252.8 308.9,252.8 306.1,230.8 320.3,230.8 	"/>
	<polygon class="st2" points="296.5,252.8 287.9,252.8 285.1,230.8 299.3,230.8 	"/>
	<polygon class="st2" points="298.4,247.3 307,247.3 309.7,269.3 295.6,269.3 	"/>
	<polygon class="st2" points="277.5,247.3 286.1,247.3 288.9,269.3 274.8,269.3 	"/>
	<polygon class="st2" points="275.2,252.8 266.6,252.8 263.9,230.8 278,230.8 	"/>
	<polygon class="st2" points="254.2,252.8 245.6,252.8 242.9,230.8 257,230.8 	"/>
	<polygon class="st2" points="256.1,247.3 264.7,247.3 267.5,269.3 253.3,269.3 	"/>
	<polygon class="st2" points="235.3,247.3 243.9,247.3 246.7,269.3 232.5,269.3 	"/>
	<polygon class="st2" points="233.1,252.8 224.5,252.8 221.8,230.8 235.9,230.8 	"/>
	<polygon class="st2" points="212.1,252.8 203.5,252.8 200.8,230.8 214.9,230.8 	"/>
	<polygon class="st2" points="214,247.3 222.6,247.3 225.4,269.3 211.2,269.3 	"/>
	<polygon class="st2" points="193.2,247.3 201.8,247.3 204.6,269.3 190.4,269.3 	"/>
	<polygon class="st2" points="191.3,252.8 182.7,252.8 179.9,230.8 194,230.8 	"/>
	<polygon class="st2" points="170.2,252.8 161.6,252.8 158.9,230.8 173,230.8 	"/>
	<polygon class="st2" points="172.1,247.3 180.7,247.3 183.5,269.3 169.4,269.3 	"/>
	<polygon class="st2" points="151.3,247.3 159.9,247.3 162.7,269.3 148.5,269.3 	"/>
	<polygon class="st2" points="149.2,252.8 140.5,252.8 137.8,230.8 151.9,230.8 	"/>
	<polygon class="st2" points="128.1,252.8 119.5,252.8 116.8,230.8 130.9,230.8 	"/>
	<polygon class="st2" points="130,247.3 138.6,247.3 141.4,269.3 127.3,269.3 	"/>
	<polygon class="st2" points="109.2,247.3 117.8,247.3 120.6,269.3 106.4,269.3 	"/>
	<polygon class="st2" points="107.7,252.8 99.1,252.8 96.4,230.8 110.5,230.8 	"/>
	<polygon class="st2" points="88.8,247.2 97.4,247.2 100.2,269.2 86,269.2 	"/>
	<polygon class="st2" points="86.6,252.8 78,252.8 75.3,230.8 89.4,230.8 	"/>
	<polygon class="st2" points="65.6,252.8 57,252.8 54.2,230.8 68.4,230.8 	"/>
	<polygon class="st2" points="67.5,247.2 76.1,247.2 78.9,269.2 64.7,269.2 	"/>
</g>
<g>
	<path class="st3" d="M105.2,271.2l-40.8,2c-5.7,0.3-10.4-4.2-10.4-9.9v-26.7c0-5.7,4.7-10.2,10.4-9.9l40.8,2
		c5.3,0.3,9.4,4.6,9.4,9.9v22.6C114.6,266.6,110.5,271,105.2,271.2z"/>
	<path class="st4" d="M90,300.8h-8.1c-1.7,0-3.1-1.4-3.1-3.1V275H93v22.8C93,299.4,91.7,300.8,90,300.8z"/>
	<path class="st4" d="M114.6,300.8h-8.1c-1.7,0-3.1-1.4-3.1-3.1V275h14.2v22.8C117.6,299.4,116.2,300.8,114.6,300.8z"/>
	<path class="st4" d="M110.7,233.9H85.8c-3.8,0-6.9,3.1-6.9,6.9v45.3c0,3.8,3.1,6.9,6.9,6.9h24.9c3.8,0,6.9-3.1,6.9-6.9v-45.3
		C117.6,237,114.5,233.9,110.7,233.9z M108.2,255c0,1.6-1.3,2.9-2.9,2.9H91.6c-1.6,0-2.9-1.3-2.9-2.9v-9.7c0-1.6,1.3-2.9,2.9-2.9
		h13.7c1.6,0,2.9,1.3,2.9,2.9V255z"/>
	<path class="st5" d="M96.9,255.8H71.7c-2.2,0-4-1.8-4-4v-3.6c0-2.2,1.8-4,4-4h25.2c2.2,0,4,1.8,4,4v3.6
		C100.9,254,99.1,255.8,96.9,255.8z"/>
	<path class="st4" d="M124.5,284.4h-6.9V250h6.9c2.4,0,4.3,1.9,4.3,4.3v25.8C128.8,282.4,126.9,284.4,124.5,284.4z"/>
</g>
</svg>
