<?xml version="1.0" encoding="utf-8"?>
<!-- Generator: Adobe Illustrator 26.0.3, SVG Export Plug-In . SVG Version: 6.00 Build 0)  -->
<svg version="1.1" xmlns="http://www.w3.org/2000/svg" xmlns:xlink="http://www.w3.org/1999/xlink" x="0px" y="0px"
	 viewBox="0 0 500 500" style="enable-background:new 0 0 500 500;" xml:space="preserve">
<style type="text/css">
	.st0{fill:#155A91;}
	.st1{fill:#0D3A5D;}
	.st2{fill:#FFFFFF;}
	.st3{fill:#CCCCDD;}
</style>
<g id="Vrstva_1">
	<g id="file">
		<path class="st0" d="M153.3,54.3c-18.4,0-33.3,14.9-33.3,33.3V413c0,18.4,14.9,33.3,33.3,33.3h193.4c18.4,0,33.3-14.9,33.3-33.3
			V135.2l-81-81H153.3V54.3z"/>
		<path class="st1" d="M298.5,53.7c0,0.1,0,0.2,0,0.4V102c0,18.4,14.9,33.3,33.3,33.3h47.9c0.1,0,0.2,0,0.4,0L298.5,53.7z"/>
	</g>
	<g id="Vrstva_2_00000042011138154146150220000009742918201005307822_">
	</g>
</g>
<g id="Vrstva_2">
	<polygon class="st2" points="221.3,255.8 152.8,364.9 289.7,364.9 	"/>
	<polygon class="st3" points="289.7,287.8 232.3,379.3 347.2,379.3 	"/>
	<circle class="st2" cx="279.5" cy="247.5" r="18.7"/>
</g>
</svg>
