<?xml version="1.0" encoding="utf-8"?>
<!-- Generator: Adobe Illustrator 26.0.3, SVG Export Plug-In . SVG Version: 6.00 Build 0)  -->
<svg version="1.1" id="Vrstva_1" xmlns="http://www.w3.org/2000/svg" xmlns:xlink="http://www.w3.org/1999/xlink" x="0px" y="0px"
	 viewBox="0 0 500 500" style="enable-background:new 0 0 500 500;" xml:space="preserve">
<style type="text/css">
	.dE2H8xB3{fill:none;stroke:currentColor;stroke-width:10;stroke-miterlimit:10;}
	.Ov3qSjdv{fill:#020203;font-family:'CreteRound-Italic';font-size:12px;}
</style>
<g>
	<path class="dE2H8xB3" d="M53.9,169v195.7c0,0,2.4,32.1,32.2,32.1s327.8,0,327.8,0s32.2-1.5,32.2-32.2s0-195.6,0-195.6
		s2.4-32.2-38.4-32.2c0-14.1-14.2-14.1-14.2-14.1H277.1L250,103.4l-147.1-0.3c0,0-12.2,1.2-12,12s0,21.7,0,21.7h-4.8
		C86.1,136.9,53.9,139.7,53.9,169z"/>
	<line class="dE2H8xB3" x1="90.9" y1="136.9" x2="407.6" y2="136.9"/>
	<text transform="matrix(1 0 0 1 105.6339 124.8584)" class="Ov3qSjdv">SUS</text>
</g>
</svg>
