<?xml version="1.0" encoding="utf-8"?>
<!-- Generator: Adobe Illustrator 26.0.3, SVG Export Plug-In . SVG Version: 6.00 Build 0)  -->
<svg version="1.1" xmlns="http://www.w3.org/2000/svg" xmlns:xlink="http://www.w3.org/1999/xlink" x="0px" y="0px"
	 viewBox="0 0 500 500" style="enable-background:new 0 0 500 500;" xml:space="preserve">
<style type="text/css">
	.st0{display:none;}
	.st1{display:inline;fill:none;stroke:#C2E2FF;stroke-width:5;stroke-miterlimit:10;}
	.st2{display:none;fill:none;stroke:#C2E2FF;stroke-width:5;stroke-miterlimit:10;}
	.st3{fill:none;stroke:#E23779;stroke-width:3;stroke-miterlimit:10;}
</style>
<g id="Vrstva_1" class="st0">
	<rect x="88.4" y="160.6" class="st1" width="324.5" height="178.6"/>
	
		<rect x="250" y="160.4" transform="matrix(-1 -1.224647e-16 1.224647e-16 -1 593.5474 499.5734)" class="st1" width="93.5" height="178.7"/>
	
		<rect x="156.5" y="160.4" transform="matrix(-1 -1.224647e-16 1.224647e-16 -1 406.4526 499.5734)" class="st1" width="93.5" height="178.7"/>
	<rect x="178.3" y="339.3" class="st1" width="143.3" height="29.3"/>
	<rect x="178.3" y="131" class="st1" width="143.3" height="29.3"/>
</g>
<g id="Vrstva_2">
	<path class="st2" d="M111.5,249.8c92.8-88.2,185.5-88.2,278.3,0C297,338.1,204.3,338.1,111.5,249.8z"/>
	<rect x="88.4" y="80.4" class="st3" width="324.5" height="324.5"/>
	<rect x="243.9" y="391.3" class="st3" width="13.5" height="13.5"/>
	<rect x="257.4" y="377.8" class="st3" width="13.5" height="13.5"/>
	<rect x="243.9" y="364.3" class="st3" width="13.5" height="13.5"/>
	<rect x="257.4" y="377.8" class="st3" width="13.5" height="13.5"/>
	<rect x="257.4" y="350.8" class="st3" width="13.5" height="13.5"/>
	<rect x="242.5" y="337.3" class="st3" width="13.5" height="13.5"/>
	<rect x="256" y="323.8" class="st3" width="13.5" height="13.5"/>
	<rect x="242.5" y="310.3" class="st3" width="13.5" height="13.5"/>
	<rect x="256" y="296.8" class="st3" width="13.5" height="13.5"/>
</g>
</svg>
