<?xml version="1.0" encoding="utf-8"?>
<!-- Generator: Adobe Illustrator 26.0.3, SVG Export Plug-In . SVG Version: 6.00 Build 0)  -->
<svg version="1.1" xmlns="http://www.w3.org/2000/svg" xmlns:xlink="http://www.w3.org/1999/xlink" x="0px" y="0px"
	 viewBox="0 0 500 500" style="enable-background:new 0 0 500 500;" xml:space="preserve">
<style type="text/css">
	.st0{display:none;}
	.st1{display:inline;fill:none;stroke:#C2E2FF;stroke-width:5;stroke-miterlimit:10;}
	.st2{display:none;fill:none;stroke:#C2E2FF;stroke-width:5;stroke-miterlimit:10;}
</style>
<g id="Vrstva_1" class="st0">
	<rect x="88.4" y="160.6" class="st1" width="324.5" height="178.6"/>
	
		<rect x="250" y="160.4" transform="matrix(-1 -1.224647e-16 1.224647e-16 -1 593.5474 499.5734)" class="st1" width="93.5" height="178.7"/>
	
		<rect x="156.5" y="160.4" transform="matrix(-1 -1.224647e-16 1.224647e-16 -1 406.4526 499.5734)" class="st1" width="93.5" height="178.7"/>
	<rect x="178.3" y="339.3" class="st1" width="143.3" height="29.3"/>
	<rect x="178.3" y="131" class="st1" width="143.3" height="29.3"/>
</g>
<g id="Vrstva_2">
	<path class="st2" d="M111.5,249.8c92.8-88.2,185.5-88.2,278.3,0C297,338.1,204.3,338.1,111.5,249.8z"/>
	<path d="M250.7,80.4C161,80.4,88.4,153,88.4,242.6S161,404.9,250.7,404.9s162.2-72.6,162.2-162.2S340.3,80.4,250.7,80.4z
		 M250.7,391.3c-82.1,0-148.7-66.6-148.7-148.7S168.5,93.9,250.7,93.9s148.7,66.6,148.7,148.7S332.8,391.3,250.7,391.3z"/>
	<path d="M338.6,235.9h-76.3c-1.2-2-2.9-3.7-4.9-4.9V127.6c0-3.7-3-6.8-6.8-6.8s-6.8,3-6.8,6.8v103.3c-4,2.3-6.8,6.7-6.8,11.7
		c0,7.5,6,13.5,13.5,13.5c5,0,9.3-2.7,11.7-6.8h76.3c3.7,0,6.8-3,6.8-6.8v0C345.4,238.9,342.3,235.9,338.6,235.9z"/>
</g>
</svg>
