<?xml version="1.0" encoding="utf-8"?>
<!-- Generator: Adobe Illustrator 26.0.3, SVG Export Plug-In . SVG Version: 6.00 Build 0)  -->
<svg version="1.1" xmlns="http://www.w3.org/2000/svg" xmlns:xlink="http://www.w3.org/1999/xlink" x="0px" y="0px"
	 viewBox="0 0 500 500" style="enable-background:new 0 0 500 500;" xml:space="preserve">
<style type="text/css">
	.st0{display:none;}
	.st1{display:inline;fill:none;stroke:#C2E2FF;stroke-width:5;stroke-miterlimit:10;}
	.st2{display:none;fill:none;stroke:#C2E2FF;stroke-width:5;stroke-miterlimit:10;}
</style>
<g id="Vrstva_1" class="st0">
	<rect x="88.4" y="160.6" class="st1" width="324.5" height="178.6"/>
	
		<rect x="250" y="160.4" transform="matrix(-1 -1.224647e-16 1.224647e-16 -1 593.5474 499.5734)" class="st1" width="93.5" height="178.7"/>
	
		<rect x="156.5" y="160.4" transform="matrix(-1 -1.224647e-16 1.224647e-16 -1 406.4526 499.5734)" class="st1" width="93.5" height="178.7"/>
	<rect x="178.3" y="339.3" class="st1" width="143.3" height="29.3"/>
	<rect x="178.3" y="131" class="st1" width="143.3" height="29.3"/>
</g>
<g id="Vrstva_2">
	<path class="st2" d="M111.5,249.8c92.8-88.2,185.5-88.2,278.3,0C297,338.1,204.3,338.1,111.5,249.8z"/>
	<g>
		<path d="M342.7,186.6l-9.9,9.9c22.3,12.5,43.3,30.3,61.8,53.4c-23.7,29.5-51.4,50.3-80.6,62.5c15.9-16.1,25.7-38.2,25.7-62.6
			c0-17.2-4.9-33.3-13.3-46.9l-9.9,9.9c6.2,10.9,9.7,23.6,9.7,37c0,41.5-33.5,75.2-75,75.6c-0.3,0-0.5,0-0.8,0
			c-13.4,0-26-3.6-36.9-9.7L198.3,331c17.1,5.3,34.6,7.9,52.1,7.9c0.1,0,0.2,0,0.3,0c1,0,2,0,3-0.1c57.3-1.2,114.6-30.8,159.3-89
			C391.9,222.4,368,201.3,342.7,186.6z"/>
		<path d="M136.2,364.5l41.3-41.3l10.2-10.2l0,0l9.6-9.6l26.7-26.7l53.5-53.5l26.7-26.7l19.6-19.6l41.3-41.3l0.5-0.5l-14.3-14.3
			l-48.2,48.2c-16.3-5.1-32.8-7.8-49.4-8.2c-1,0-2-0.1-3-0.1c-0.1,0-0.2,0-0.3,0c-58.6-0.1-117,29.6-162,89.2
			c20.9,27.6,44.8,48.8,70.1,63.6l-36.7,36.7L136.2,364.5z M250.5,174.2c0.3,0,0.5,0,0.8,0c13.3,0.1,25.8,3.7,36.6,9.8L259,212.9
			c-2.7-0.6-5.5-0.9-8.4-0.9c-20.9,0-37.8,16.9-37.8,37.8c0,2.9,0.3,5.7,0.9,8.4l-28.9,28.9c-6.3-11-9.8-23.7-9.8-37.3
			C175,208.1,208.8,174.3,250.5,174.2z M106.6,249.8c23.7-29.9,51.5-51,81.1-63.1c-16.2,16.1-26.2,38.4-26.2,63.1
			c0,17.3,4.9,33.5,13.5,47.2l-6.6,6.6C146.1,291,125.1,273.1,106.6,249.8z"/>
		<path d="M250.7,287.6c20.9,0,37.8-16.9,37.8-37.8c0-2.8-0.3-5.5-0.9-8.1l-45,45C245.2,287.3,247.9,287.6,250.7,287.6z"/>
	</g>
</g>
</svg>
