<?xml version="1.0" encoding="utf-8"?>
<!-- Generator: Adobe Illustrator 26.0.3, SVG Export Plug-In . SVG Version: 6.00 Build 0)  -->
<svg version="1.1" xmlns="http://www.w3.org/2000/svg" xmlns:xlink="http://www.w3.org/1999/xlink" x="0px" y="0px"
	 viewBox="0 0 500 500" style="enable-background:new 0 0 500 500;" xml:space="preserve">
<style type="text/css">
	.st0{display:none;}
	.st1{display:inline;fill:none;stroke:#C2E2FF;stroke-width:5;stroke-miterlimit:10;}
	.st2{display:none;fill:none;stroke:#C2E2FF;stroke-width:5;stroke-miterlimit:10;}
</style>
<g id="Vrstva_1" class="st0">
	<rect x="88.4" y="160.6" class="st1" width="324.5" height="178.6"/>
	
		<rect x="250" y="160.4" transform="matrix(-1 -1.224647e-16 1.224647e-16 -1 593.5474 499.5734)" class="st1" width="93.5" height="178.7"/>
	
		<rect x="156.5" y="160.4" transform="matrix(-1 -1.224647e-16 1.224647e-16 -1 406.4526 499.5734)" class="st1" width="93.5" height="178.7"/>
	<rect x="178.3" y="339.3" class="st1" width="143.3" height="29.3"/>
	<rect x="178.3" y="131" class="st1" width="143.3" height="29.3"/>
</g>
<g id="Vrstva_2">
	<path class="st2" d="M111.5,249.8c92.8-88.2,185.5-88.2,278.3,0C297,338.1,204.3,338.1,111.5,249.8z"/>
	<path d="M88.4,249.8c89.9,118.7,233.3,118.7,324.5,0C321.7,131,178.3,131,88.4,249.8z M106.6,249.8c79.8-100.9,207.1-100.9,288.1,0
		C313.7,350.6,186.4,350.6,106.6,249.8z"/>
	<path d="M250.7,160.7c-49.2,0-89.1,39.9-89.1,89.1s39.9,89.1,89.1,89.1c49.2,0,89.1-39.9,89.1-89.1S299.9,160.7,250.7,160.7z
		 M250.7,325.4c-41.8,0-75.6-33.8-75.6-75.6c0-41.8,33.8-75.6,75.6-75.6s75.6,33.8,75.6,75.6C326.3,291.6,292.4,325.4,250.7,325.4z"
		/>
	<circle cx="250.6" cy="249.8" r="37.8"/>
</g>
</svg>
