<?xml version="1.0" encoding="utf-8"?>
<!-- Generator: Adobe Illustrator 26.0.3, SVG Export Plug-In . SVG Version: 6.00 Build 0)  -->
<svg version="1.1" id="Vrstva_1" xmlns="http://www.w3.org/2000/svg" xmlns:xlink="http://www.w3.org/1999/xlink" x="0px" y="0px"
	 viewBox="0 0 500 500" style="enable-background:new 0 0 500 500;" xml:space="preserve">
<style type="text/css">
	.iiDUfjHe{fill:none;stroke:#000000;stroke-width:10;stroke-miterlimit:10;}
	.feoo2d9R{fill:#FFFFFF;}
	.gtKL-PvG{font-family:'Times New Roman';}
	.z2qWRBfs{font-size:89.3619px;}
	.bUvEmpc2{letter-spacing:8;}
</style>
<g>
	<path d="M250.6,87.6c-89.6,0-162.3,72.6-162.3,162.3S161,412.1,250.6,412.1s162.3-72.6,162.3-162.3S340.3,87.6,250.6,87.6z
		 M250.6,398.5c-82,0-148.5-66.5-148.5-148.5s66.5-148.5,148.5-148.5S399.1,168,399.1,250S332.6,398.5,250.6,398.5z"/>
	<line class="iiDUfjHe" x1="250" y1="94.6" x2="250" y2="407.6"/>
	<path class="iiDUfjHe" d="M250,407.6"/>
	<path class="iiDUfjHe" d="M250,94.6"/>
	<path class="iiDUfjHe" d="M250,93.3c-128.9,60.2-108.5,282.3,0,313"/>
	<path class="iiDUfjHe" d="M250,407.6c128.9-60.2,108.5-282.3,0-313"/>
	<path class="iiDUfjHe" d="M144.6,136.6c28.7,28.9,184.6,29.9,213.4,0"/>
	<path class="iiDUfjHe" d="M356.7,366c-28.6-26.4-184.5-31.3-213.4,0"/>
</g>
<rect x="76.5" y="195.8" width="347" height="108"/>
<text transform="matrix(1 0 0 1 110.9948 283.5309)" class="feoo2d9R gtKL-PvG z2qWRBfs bUvEmpc2">WWW</text>
</svg>
