<?xml version="1.0" encoding="utf-8"?>
<!-- Generator: Adobe Illustrator 26.0.3, SVG Export Plug-In . SVG Version: 6.00 Build 0)  -->
<svg version="1.1" id="Vrstva_1" xmlns="http://www.w3.org/2000/svg" xmlns:xlink="http://www.w3.org/1999/xlink" x="0px" y="0px"
	 viewBox="0 0 500 500" style="enable-background:new 0 0 500 500;" xml:space="preserve">
<g>
	<g>
		<path d="M284.7,147.1c-23.4,2.9-25.7,4.6-25.7,34.7V325c0,30,2.5,31.1,25.7,34.3v10H209v-10c23.4-3.6,25.7-4.3,25.7-34.3v-71.5
			h-96.5V325c0,29.7,2.3,30.7,25.4,34.3v10H88.2v-10c22.9-3.2,25.4-4.3,25.4-34.3V181.7c0-30-2.5-31.8-25.4-34.7v-10h75.4v10
			c-22.6,2.5-25.4,5-25.4,34.7v56.8h96.5v-56.8c0-29.7-3.1-32.2-25.7-34.7v-10h75.6V147.1z"/>
		<path d="M322.8,369.3v-10c31.3-2.5,33-4.3,33-31.1V191c0-18.2-2-18.9-14.4-20.4l-13.8-1.8v-8.9c18.6-3.9,37.3-9.6,51.7-17.5v185.8
			c0,27.2,1.7,28.6,33.3,31.1v10H322.8z"/>
	</g>
</g>
</svg>
